<svg width="218" height="126" viewBox="0 0 218 126" fill="none" xmlns="http://www.w3.org/2000/svg">
<path d="M39.9287 29.4296C61.3517 13.2027 77.445 23.0687 77.445 23.0687C77.445 23.0687 84.455 10.9961 106.004 10.9961C127.553 10.9961 136.641 24.886 136.641 24.886C136.641 24.886 145.728 15.02 163.252 17.4865C180.777 19.953 193.109 41.2424 193.109 41.2424C193.109 41.2424 212.469 60.5784 184.983 67.2497C158.525 73.6717 85.5099 67.433 56.3291 67.2497C-2.62236 66.8799 39.9287 29.4296 39.9287 29.4296Z" fill="url(#paint0_linear_1850_938)"/>
<path d="M108.774 125.996H108.352C108.352 125.996 108.352 125.991 108.352 125.988C31.3606 125.295 0 107.176 0 107.176C0 107.176 20.9635 91.8696 108.352 91.3849V91.3809H108.774H109.196V91.3849C196.585 91.8737 217.549 107.175 217.549 107.175C217.549 107.175 186.188 125.294 109.196 125.992C109.196 125.992 109.196 125.996 109.196 125.999L108.774 125.996Z" fill="url(#paint1_linear_1850_938)"/>
<path d="M131.026 62.4219C129.413 62.4984 127.416 62.729 123.037 66.9541C118.198 63.4979 112.514 65.7249 112.514 65.7249C112.514 65.7249 114.973 66.7236 115.202 67.6456C109.902 66.5704 104.832 74.5588 99.0739 75.173C93.3158 75.7872 91.3926 75.173 91.3926 75.173C91.3926 75.173 95.9248 81.6252 101.916 81.8524C101.496 82.3615 100.935 82.7355 100.303 82.9276C100.303 82.9276 112.132 85.7696 118.431 80.6998C118.378 81.4598 118.223 82.2092 117.97 82.9276C117.97 82.9276 126.881 77.8578 124.731 69.2552C122.657 71.9433 117.741 78.0118 107.909 77.3194C119.354 74.5539 120.967 69.4841 126.344 66.1045C127.806 65.1685 129.38 64.42 131.029 63.8767C132.102 63.4971 131.026 62.4219 131.026 62.4219Z" fill="#B4B4B4"/>
<path d="M169.011 88.176C158.834 88.176 160.252 75.4134 163.087 66.0778C165.923 56.7421 167.282 53.0195 169.41 53.0195C171.537 53.0195 174.019 59.9922 175.555 66.0778C178.037 77.304 179.189 88.176 169.011 88.176Z" fill="#F2F2F2"/>
<path d="M168.589 97.2177V81.1635L164.902 77.1722L165.517 76.558L168.589 79.0163V63.0371H169.741V70.0269L172.583 66.9543L173.12 67.4154L169.741 72.4078V97.2185L168.589 97.2177Z" fill="#B4B4B4" stroke="#B4B4B4"/>
<path d="M214.274 71.0168C214.274 66.0682 210.262 62.0566 205.314 62.0566C200.365 62.0566 196.354 66.0682 196.354 71.0168V86.4935C196.354 91.442 200.365 95.4536 205.314 95.4536C210.262 95.4536 214.274 91.442 214.274 86.4935V71.0168Z" fill="#F2F2F2"/>
<path d="M204.429 105.36V89.3061L200.742 85.3148L201.356 84.7006L204.429 87.1589V71.1797H205.581V78.1694L208.423 75.0969L208.96 75.558L205.581 80.5504V105.361L204.429 105.36Z" fill="#B4B4B4" stroke="#B4B4B4"/>
<path d="M28.0914 53.3826C18.7859 53.0829 14.7326 91.2288 28.0914 91.0284C41.4502 90.828 37.397 53.6824 28.0914 53.3826Z" fill="#F2F2F2"/>
<path d="M27.6711 101.125V82.0784L23.9844 77.3393L24.5986 76.6062L27.6711 79.5223V62.2031H28.8229V70.4962L31.6649 66.851L32.2025 67.3976L28.8229 73.3211V101.127L27.6711 101.125Z" fill="#B4B4B4" stroke="#B4B4B4"/>
<path d="M51.8663 53.3809C53.963 53.3809 61.1523 69.7535 59.5549 71.6547C57.9576 73.5559 57.3556 74.9496 59.5549 78.4449C61.7542 81.9402 56.0596 84.2364 51.367 84.1371C46.6743 84.0377 42.6797 81.84 42.6797 79.3442C42.6797 76.8484 45.1763 74.3517 43.2792 71.6555C41.3821 68.9593 49.7688 53.3809 51.8663 53.3809Z" fill="#F2F2F2"/>
<path d="M52.0151 97.5185V79.9183L55.7018 76.3497L55.0876 75.8007L52.0151 78V68.209H50.8633V97.5193L52.0151 97.5185Z" fill="#B4B4B4" stroke="#B4B4B4"/>
<path d="M68.8087 36.3034C66.2738 31.311 71.8812 27.854 78.7944 28.7761C75.0303 31.0039 75.7984 38.3773 70.6487 37.5326C69.7208 38.4525 68.8488 39.4271 68.0373 40.4512L67.3457 39.6831C67.3457 39.6831 71.7264 34.0764 74.4144 31.0805C72.4271 32.6895 70.554 34.4347 68.8087 36.3034Z" fill="#B4B4B4"/>
<path d="M131.211 0C133.573 6.86349 141.892 3.77223 143.164 10.1356C144.719 10.6863 146.315 11.1118 147.937 11.4079L147.529 12.4986C143.457 12.1498 139.55 10.722 136.212 8.36228C137.889 10.2215 139.996 11.6417 142.348 12.4986C142.348 12.4986 141.121 14.7712 136.394 13.3132C131.667 11.8551 130.166 6.31773 131.211 0Z" fill="#B4B4B4"/>
<path d="M161.015 46.3031C142.611 62.6595 122.36 45.7842 96.5269 43.9661C70.6939 42.148 61.3477 46.3031 61.3477 46.3031" stroke="#B4B4B4"/>
<path d="M156.323 43.5107C140.446 53.1274 143.741 38.2486 153.028 34.3542C162.315 30.4598 173.399 37.1506 164.514 50.2316C155.628 63.3127 133.958 58.6216 119.778 55.3243C105.598 52.0269 83.9291 44.8392 62.0605 56.0232" stroke="#B4B4B4"/>
<defs>
<linearGradient id="paint0_linear_1850_938" x1="112.405" y1="10.9961" x2="112.405" y2="40.5706" gradientUnits="userSpaceOnUse">
<stop stop-color="#F2F2F2"/>
<stop offset="1" stop-color="#F2F2F2" stop-opacity="0"/>
</linearGradient>
<linearGradient id="paint1_linear_1850_938" x1="108.774" y1="91.3809" x2="108.774" y2="108.69" gradientUnits="userSpaceOnUse">
<stop stop-color="#F2F2F2"/>
<stop offset="0.303" stop-color="#F2F2F2" stop-opacity="0.412"/>
<stop offset="0.557" stop-color="#F2F2F2" stop-opacity="0.18"/>
<stop offset="1" stop-color="#F2F2F2" stop-opacity="0"/>
</linearGradient>
</defs>
</svg>
