<svg width="94" height="94" viewBox="0 0 94 94" fill="none" xmlns="http://www.w3.org/2000/svg">
<circle cx="47" cy="47" r="47" fill="#60DBF3"/>
<rect x="46.9932" y="51.1807" width="6.84696" height="7.10873" transform="rotate(-40.2842 46.9932 51.1807)" fill="#D9D9D9"/>
<path d="M72.7605 86.2877C75.4998 84.4994 80.9998 79.5 81.9998 77.9996L57.9733 51.1923L50.4287 57.587C50.4287 57.587 72.4998 86.0002 72.7605 86.2877Z" fill="#00BDE3"/>
<path d="M72.7607 86.2881L77.6937 82.1069L54.2013 54.39L50.429 57.5874L72.7607 86.2881Z" fill="#00B3D8"/>
<circle cx="34.5" cy="29.5" r="21.5" fill="#9DE9F8"/>
<path fill-rule="evenodd" clip-rule="evenodd" d="M34.5 55C48.5833 55 60 43.5833 60 29.5C60 15.4167 48.5833 4 34.5 4C20.4167 4 9 15.4167 9 29.5C9 43.5833 20.4167 55 34.5 55ZM34.5 51C46.3741 51 56 41.3741 56 29.5C56 17.6259 46.3741 8 34.5 8C22.6259 8 13 17.6259 13 29.5C13 41.3741 22.6259 51 34.5 51Z" fill="white"/>
<path d="M17.7874 30.4233C20.1251 21.8654 26.8654 15.1251 35.4233 12.7874C38.2295 12.0208 37.7295 10 35.4233 10C24.1438 10 15 19.1438 15 30.4233C15 32.7295 16.8842 33.7295 17.7874 30.4233Z" fill="white"/>
</svg>
